<svg width="33" height="29" viewBox="0 0 33 29" fill="none" xmlns="http://www.w3.org/2000/svg">
<mask id="path-1-outside-1_874_91" maskUnits="userSpaceOnUse" x="-0.5" y="-0.357422" width="34" height="29" fill="black">
<rect fill="white" x="-0.5" y="-0.357422" width="34" height="29"/>
<path d="M30.2143 8.85686C30.2143 3.83901 26.8214 2.78543 23.9643 2.78543C21.3036 2.78543 18.3036 5.66043 17.375 6.76758C16.9464 7.28543 16.0536 7.28543 15.625 6.76758C14.6964 5.66043 11.6964 2.78543 9.03572 2.78543C6.17857 2.78543 2.78571 3.83901 2.78571 8.85686C2.78571 12.1247 6.08929 15.1604 6.125 15.1961L16.5 25.1961L26.8571 15.214C26.9107 15.1604 30.2143 12.1247 30.2143 8.85686ZM32.5 8.85686C32.5 13.1426 28.5714 16.7319 28.4107 16.8926L17.2857 27.6069C17.0714 27.8211 16.7857 27.9283 16.5 27.9283C16.2143 27.9283 15.9286 27.8211 15.7143 27.6069L4.57143 16.8569C4.42857 16.7319 0.5 13.1426 0.5 8.85686C0.5 3.62472 3.69643 0.49972 9.03572 0.49972C12.1607 0.49972 15.0893 2.96401 16.5 4.35686C17.9107 2.96401 20.8393 0.49972 23.9643 0.49972C29.3036 0.49972 32.5 3.62472 32.5 8.85686Z"/>
</mask>
<path d="M30.2143 8.85686C30.2143 3.83901 26.8214 2.78543 23.9643 2.78543C21.3036 2.78543 18.3036 5.66043 17.375 6.76758C16.9464 7.28543 16.0536 7.28543 15.625 6.76758C14.6964 5.66043 11.6964 2.78543 9.03572 2.78543C6.17857 2.78543 2.78571 3.83901 2.78571 8.85686C2.78571 12.1247 6.08929 15.1604 6.125 15.1961L16.5 25.1961L26.8571 15.214C26.9107 15.1604 30.2143 12.1247 30.2143 8.85686ZM32.5 8.85686C32.5 13.1426 28.5714 16.7319 28.4107 16.8926L17.2857 27.6069C17.0714 27.8211 16.7857 27.9283 16.5 27.9283C16.2143 27.9283 15.9286 27.8211 15.7143 27.6069L4.57143 16.8569C4.42857 16.7319 0.5 13.1426 0.5 8.85686C0.5 3.62472 3.69643 0.49972 9.03572 0.49972C12.1607 0.49972 15.0893 2.96401 16.5 4.35686C17.9107 2.96401 20.8393 0.49972 23.9643 0.49972C29.3036 0.49972 32.5 3.62472 32.5 8.85686Z" fill="#ED9B04"/>
<path d="M17.375 6.76758L16.9919 6.44627L16.9898 6.44879L17.375 6.76758ZM15.625 6.76758L16.0102 6.44879L16.0081 6.44627L15.625 6.76758ZM6.125 15.1961L5.77139 15.5498L5.77801 15.5561L6.125 15.1961ZM16.5 25.1961L16.153 25.5561L16.5 25.8906L16.847 25.5562L16.5 25.1961ZM26.8571 15.214L27.2042 15.5741L27.2107 15.5676L26.8571 15.214ZM28.4107 16.8926L28.7576 17.2528L28.7643 17.2461L28.4107 16.8926ZM17.2857 27.6069L16.9388 27.2467L16.9322 27.2533L17.2857 27.6069ZM15.7143 27.6069L16.0679 27.2533L16.0614 27.247L15.7143 27.6069ZM4.57143 16.8569L4.91858 16.497L4.90983 16.4886L4.90068 16.4806L4.57143 16.8569ZM16.5 4.35686L16.1487 4.71266L16.5 5.05951L16.8513 4.71266L16.5 4.35686ZM30.2143 8.85686H30.7143C30.7143 6.22325 29.8158 4.54072 28.4578 3.53732C27.1282 2.55484 25.4396 2.28543 23.9643 2.28543V2.78543V3.28543C25.3461 3.28543 26.7825 3.54281 27.8636 4.34159C28.9163 5.11943 29.7143 6.47262 29.7143 8.85686H30.2143ZM23.9643 2.78543V2.28543C22.4735 2.28543 20.9514 3.08071 19.7293 3.95461C18.4929 4.83871 17.4803 5.8639 16.9919 6.44627L17.375 6.76758L17.7581 7.08888C18.1982 6.56412 19.15 5.59823 20.3109 4.76804C21.4861 3.92766 22.7944 3.28543 23.9643 3.28543V2.78543ZM17.375 6.76758L16.9898 6.44879C16.8859 6.57438 16.7073 6.65597 16.5 6.65597C16.2927 6.65597 16.1141 6.57438 16.0102 6.44879L15.625 6.76758L15.2398 7.08636C15.5644 7.47864 16.0466 7.65597 16.5 7.65597C16.9534 7.65597 17.4356 7.47864 17.7602 7.08636L17.375 6.76758ZM15.625 6.76758L16.0081 6.44627C15.5197 5.8639 14.5071 4.83871 13.2707 3.95461C12.0486 3.08071 10.5265 2.28543 9.03572 2.28543V2.78543V3.28543C10.2056 3.28543 11.5139 3.92766 12.6891 4.76804C13.8501 5.59823 14.8018 6.56412 15.2419 7.08888L15.625 6.76758ZM9.03572 2.78543V2.28543C7.56036 2.28543 5.87182 2.55484 4.54215 3.53732C3.18416 4.54072 2.28571 6.22325 2.28571 8.85686H2.78571H3.28571C3.28571 6.47262 4.08369 5.11943 5.13642 4.34159C6.21747 3.54281 7.65393 3.28543 9.03572 3.28543V2.78543ZM2.78571 8.85686H2.28571C2.28571 10.6466 3.18348 12.3273 4.034 13.5276C4.46455 14.1353 4.89539 14.637 5.22091 14.9894C5.5443 15.3395 5.77691 15.5552 5.77145 15.5497L6.125 15.1961L6.47855 14.8426C6.45375 14.8178 5.65124 14.0804 4.84993 12.9495C4.03973 11.8061 3.28571 10.335 3.28571 8.85686H2.78571ZM6.125 15.1961L5.77801 15.5561L16.153 25.5561L16.5 25.1961L16.847 24.8361L6.47199 14.8361L6.125 15.1961ZM16.5 25.1961L16.847 25.5562L27.2041 15.574L26.8571 15.214L26.5102 14.854L16.153 24.8361L16.5 25.1961ZM26.8571 15.214L27.2107 15.5676C27.2099 15.5684 27.4456 15.3495 27.7715 14.997C28.0995 14.6422 28.532 14.1388 28.9637 13.53C29.8165 12.3274 30.7143 10.6467 30.7143 8.85686H30.2143H29.7143C29.7143 10.3349 28.9603 11.806 28.1479 12.9516C27.3444 14.0847 26.5375 14.8266 26.5036 14.8605L26.8571 15.214ZM32.5 8.85686H32C32 10.8532 31.0811 12.7211 30.104 14.1377C29.1324 15.5465 28.1447 16.4515 28.0572 16.539L28.4107 16.8926L28.7643 17.2461C28.7636 17.2468 28.7645 17.2459 28.7684 17.2421C28.7719 17.2388 28.7764 17.2344 28.7825 17.2286C28.7941 17.2174 28.8104 17.2019 28.8297 17.1833C28.8687 17.1458 28.9211 17.0951 28.9848 17.0318C29.1122 16.9053 29.2844 16.7295 29.4859 16.5099C29.8884 16.0712 30.41 15.4554 30.9272 14.7055C31.9546 13.2159 33 11.1462 33 8.85686H32.5ZM28.4107 16.8926L28.0639 16.5324L16.9389 27.2467L17.2857 27.6069L17.6326 27.967L28.7576 17.2527L28.4107 16.8926ZM17.2857 27.6069L16.9322 27.2533C16.8178 27.3677 16.662 27.4283 16.5 27.4283V27.9283V28.4283C16.9094 28.4283 17.3251 28.2746 17.6393 27.9604L17.2857 27.6069ZM16.5 27.9283V27.4283C16.338 27.4283 16.1822 27.3677 16.0678 27.2533L15.7143 27.6069L15.3607 27.9604C15.6749 28.2746 16.0906 28.4283 16.5 28.4283V27.9283ZM15.7143 27.6069L16.0614 27.247L4.91858 16.497L4.57143 16.8569L4.22428 17.2167L15.3671 27.9667L15.7143 27.6069ZM4.57143 16.8569L4.90068 16.4806C4.90068 16.4806 4.90027 16.4802 4.89938 16.4794C4.89852 16.4787 4.89735 16.4776 4.89586 16.4763C4.89288 16.4736 4.88889 16.47 4.8839 16.4655C4.87391 16.4564 4.86035 16.4439 4.84344 16.4281C4.80963 16.3965 4.7629 16.3521 4.70514 16.2956C4.5896 16.1826 4.43042 16.0215 4.24251 15.8178C3.86626 15.4099 3.37744 14.834 2.89363 14.1331C1.91895 12.7211 1 10.8533 1 8.85686H0.5H0C0 11.1461 1.04533 13.2158 2.07066 14.7012C3.1002 16.1926 4.14882 17.1515 4.24218 17.2332L4.57143 16.8569ZM0.5 8.85686H1C1 6.3437 1.76537 4.39479 3.11535 3.07358C4.46671 1.75102 6.4629 0.99972 9.03572 0.99972V0.49972V-0.00028038C6.26925 -0.00028038 3.99758 0.81092 2.4159 2.3589C0.832841 3.90822 0 6.13788 0 8.85686H0.5ZM9.03572 0.49972V0.99972C10.4708 0.99972 11.8925 1.56776 13.1509 2.33315C14.405 3.09594 15.4589 4.03159 16.1487 4.71266L16.5 4.35686L16.8513 4.00106C16.1304 3.28928 15.0147 2.29636 13.6705 1.47879C12.3307 0.663818 10.7256 -0.00028038 9.03572 -0.00028038V0.49972ZM16.5 4.35686L16.8513 4.71266C17.5411 4.03159 18.595 3.09594 19.8491 2.33315C21.1075 1.56776 22.5292 0.99972 23.9643 0.99972V0.49972V-0.00028038C22.2744 -0.00028038 20.6693 0.663818 19.3295 1.47879C17.9853 2.29636 16.8696 3.28928 16.1487 4.00106L16.5 4.35686ZM23.9643 0.49972V0.99972C26.5371 0.99972 28.5333 1.75102 29.8847 3.07358C31.2346 4.39479 32 6.3437 32 8.85686H32.5H33C33 6.13788 32.1672 3.90822 30.5841 2.3589C29.0024 0.81092 26.7308 -0.00028038 23.9643 -0.00028038V0.49972Z" fill="#ED9B04" mask="url(#path-1-outside-1_874_91)"/>
</svg>
